{"title":"Unreal Estate - S01E03 - Designer Dreams","uid":16007416,"size":357867387,"categoryP":"video","categoryS":"tv_shows","magnet":"?xt=urn:btih:9a58017e8a898a2b38f47e2734b3c8fc68ddffe3&amp;dn=Unreal+Estate+-+S01E03+-+Designer+Dreams&amp;tr=udp%3A%2F%2Ftracker.leechers-paradise.org%3A6969&amp;tr=udp%3A%2F%2Fzer0day.ch%3A1337&amp;tr=udp%3A%2F%2Fopen.demonii.com%3A1337&amp;tr=udp%3A%2F%2Ftracker.coppersurfer.tk%3A6969&amp;tr=udp%3A%2F%2Fexodus.desync.com%3A6969","seeders":12,"leechers":5,"uploader":"Bullrout","files":1,"time":1476198426,"description":"Unreal Estate - S01E03 - Designer Dreams\r\n\r\nCam steps into Perth's golden triangle to spend the day with Million Dollar Makeover interior designer Sasha deBretton, while Kate crosses the ditch to meet the design duo who put together the famous Bradley Mansion in Coatesville.\r\n\r\nComplete name : Unreal Estate - S01E03 - Designer Dreams.mp4\r\nFormat : MPEG-4\r\nFormat profile : Base Media / Version 2\r\nCodec ID : mp42 (mp42/isom/avc1)\r\nFile size : 341 MiB\r\nDuration : 43 min 5 s\r\nOverall bit rate mode : Variable\r\nOverall bit rate : 1 107 kb/s\r\n\r\nVideo\r\nID : 2\r\nFormat : AVC\r\nFormat/Info : Advanced Video Codec\r\nFormat profile :   \r\nFormat settings, CABAC : Yes\r\nFormat settings, ReFrames : 3 frames\r\nCodec ID : avc1\r\nCodec ID/Info : Advanced Video Coding\r\nDuration : 43 min 5 s\r\nBit rate mode : Variable\r\nBit rate : 976 kb/s\r\nMaximum bit rate : 1 000 kb/s\r\nWidth : 720 pixels\r\nHeight : 404 pixels\r\nDisplay aspect ratio : 16:9\r\nOriginal display aspect ratio : 16:9\r\nFrame rate mode : Constant\r\nFrame rate : 25.000 FPS\r\nStandard : PAL\r\nColor space : YUV\r\nChroma subsampling : 4:2:0\r\nBit depth : 8 bits\r\nScan type : Progressive\r\nBits/(Pixel*Frame) : 0.134\r\nStream size : 301 MiB (88%)\r\nWriting library : x264 core 112\r\nColor range : Limited\r\nColor primaries : BT.601 PAL\r\nTransfer characteristics : BT.470 System B, BT.470 System G\r\nMatrix coefficients : BT.601\r\n\r\nAudio\r\nID : 1\r\nFormat : AAC\r\nFormat/Info : Advanced Audio Codec\r\nFormat profile : LC\r\nCodec ID : 40\r\nDuration : 43 min 5 s\r\nBit rate mode : Variable\r\nBit rate : 128 kb/s\r\nMaximum bit rate : 576 kb/s\r\nChannel(s) : 2 channels\r\nChannel positions : Front: L R\r\nSampling rate : 48.0 kHz\r\nFrame rate : 46.875 FPS (1024 spf)\r\nCompression mode : Lossy\r\nStream size : 39.5 MiB (12%)","torrent":{"xt":"urn:btih:9a58017e8a898a2b38f47e2734b3c8fc68ddffe3","amp;dn":"Unreal+Estate+-+S01E03+-+Designer+Dreams","amp;tr":["udp%3A%2F%2Ftracker.leechers-paradise.org%3A6969","udp%3A%2F%2Fzer0day.ch%3A1337","udp%3A%2F%2Fopen.demonii.com%3A1337","udp%3A%2F%2Ftracker.coppersurfer.tk%3A6969","udp%3A%2F%2Fexodus.desync.com%3A6969"],"infoHash":"9a58017e8a898a2b38f47e2734b3c8fc68ddffe3","infoHashBuffer":{"type":"Buffer","data":[154,88,1,126,138,137,138,43,56,244,126,39,52,179,200,252,104,221,255,227]},"announce":[],"urlList":[]}}